# xmcd CD database file
#
# Track frame offsets:
#	150
#	16976
#	36211
#	54136
#	75727
#	97464
#	121724
#	143683
#	168171
#	188578
#	206945
#	226616
#
# Disc length: 3316 seconds
#
# Revision: 0
# Processed by: cddbd v1.5.2PL0 Copyright (c) Steve Scherf et al.
# Submitted via: CDex 1.51
#
DISCID=910cf20c
DTITLE=Ellen and Bernd Marquart - Groove
DYEAR=1900
DGENRE=Jazz
TTITLE0=Funji Mama
TTITLE1=The Telephone Song
TTITLE2=Well You Needn´t
TTITLE3=Hello Venus Goodbye Mars
TTITLE4=Blue Rondo a la Turk
TTITLE5=Easy Living
TTITLE6=Uncle Shreddie
TTITLE7=Like Someone in Love
TTITLE8=Joy Spring
TTITLE9=Old Devil Moon
TTITLE10=I Got Rhythm
TTITLE11=How Can You Lose
EXTD=
EXTT0=
EXTT1=
EXTT2=
EXTT3=
EXTT4=
EXTT5=
EXTT6=
EXTT7=
EXTT8=
EXTT9=
EXTT10=
EXTT11=
PLAYORDER=
